<svg width="100" height="100" viewBox="0 0 100 100" fill="none" xmlns="http://www.w3.org/2000/svg">
<path d="M37.6311 17.3229C38.68 18.4467 39.5229 19.6643 40.1598 20.9755C40.7967 22.2492 41.1151 23.5417 41.1151 24.8529C41.1151 25.752 40.9465 26.5949 40.6094 27.3817C40.2722 28.1309 39.8039 28.7865 39.2045 29.3485C38.6426 29.9104 37.9682 30.36 37.1815 30.6971C36.3948 30.9968 35.5331 31.1467 34.5966 31.1467C33.7349 31.1467 32.9107 31.0156 32.124 30.7533C31.3373 30.4536 30.6255 30.0228 29.9886 29.4608C29.3517 28.8989 28.846 28.2058 28.4714 27.3817C28.0967 26.5575 27.9094 25.5834 27.9094 24.4595C27.9094 22.7737 28.3777 20.9942 29.3143 19.1211C30.2883 17.2105 31.6932 15.4684 33.5289 13.895C35.402 12.3215 37.7247 11.0103 40.497 9.96138C43.2692 8.91242 46.4536 8.38794 50.05 8.38794C53.609 8.38794 56.7559 8.91242 59.4907 9.96138C62.2629 11.0103 64.5857 12.4152 66.4588 14.176C68.3694 15.8993 69.8117 17.8848 70.7858 20.1326C71.7598 22.3804 72.2468 24.7218 72.2468 27.1569C72.2468 31.9521 70.3175 36.4477 66.4588 40.6435C64.8854 42.3668 63.1059 44.0152 61.1203 45.5886C59.1348 47.1621 57.2616 48.8105 55.5009 50.5338C53.7776 52.2571 52.3165 54.1489 51.1177 56.2094C49.9564 58.2324 49.3757 60.5551 49.3757 63.1775C49.3757 63.702 49.3944 64.3201 49.4319 65.0319C49.5068 65.7063 49.6005 66.418 49.7129 67.1673C49.1135 67.3921 48.4579 67.5607 47.7461 67.6731C47.0717 67.748 46.4161 67.7854 45.7793 67.7854C45.1798 65.4253 44.8801 63.2337 44.8801 61.2107C44.8801 59.2626 45.1236 57.5019 45.6107 55.9284C46.0977 54.355 46.7158 52.9314 47.4651 51.6576C48.2518 50.3464 49.1135 49.1476 50.05 48.0612C51.0241 46.9373 51.9981 45.8696 52.9721 44.8581C54.1335 43.5844 55.2199 42.3481 56.2314 41.1493C57.2429 39.9505 58.1046 38.658 58.8164 37.2719C59.5656 35.8857 60.1463 34.3685 60.5584 32.7201C61.0079 31.0343 61.2327 29.105 61.2327 26.9321C61.2327 24.3846 60.933 22.2305 60.3336 20.4697C59.7342 18.6715 58.8913 17.2105 57.8049 16.0866C56.7184 14.9627 55.4072 14.1572 53.8712 13.6702C52.3727 13.1457 50.6869 12.8835 48.8137 12.8835C46.566 12.8835 44.4493 13.2394 42.4638 13.9512C40.4782 14.663 38.8673 15.7869 37.6311 17.3229ZM47.8584 91.6119C46.772 91.6119 45.7605 91.4246 44.8239 91.0499C43.9248 90.6753 43.1194 90.1508 42.4076 89.4765C41.6958 88.8022 41.1338 87.9967 40.7218 87.0601C40.3471 86.1236 40.1598 85.0933 40.1598 83.9694C40.1598 82.8456 40.3659 81.8153 40.7779 80.8787C41.19 79.9047 41.7333 79.0805 42.4076 78.4062C43.1194 77.7319 43.9436 77.2074 44.8801 76.8327C45.8167 76.4207 46.8282 76.2146 47.9146 76.2146C48.9636 76.2146 49.9564 76.4019 50.8929 76.7766C51.8295 77.1512 52.6537 77.6757 53.3655 78.35C54.0773 79.0243 54.6205 79.8298 54.9951 80.7664C55.4072 81.7029 55.6133 82.7332 55.6133 83.8571C55.6133 84.9809 55.4072 86.0299 54.9951 87.0039C54.6205 87.9405 54.0773 88.7647 53.3655 89.4765C52.6537 90.1508 51.8295 90.6753 50.8929 91.0499C49.9564 91.4246 48.9449 91.6119 47.8584 91.6119Z" fill="#7E7E7E"/>
</svg>
